<?xml version="1.0" encoding="utf-8"?>
<!-- Generator: Adobe Illustrator 27.3.1, SVG Export Plug-In . SVG Version: 6.00 Build 0)  -->
<svg width="120" height="60" version="1.1" id="Camada_1" xmlns="http://www.w3.org/2000/svg" xmlns:xlink="http://www.w3.org/1999/xlink" x="0px" y="0px"
	 viewBox="0 0 154.6 60.7" style="enable-background:new 0 0 154.6 60.7;" xml:space="preserve">
<style type="text/css">
	.st0{fill:#971720;}
	.st1{fill:url(#SVGID_1_);}
	.st2{font-family:'DINAlternate-Bold';}
	.st3{font-size:12px;}
</style>
<g>
	<g>
		<g>
			<g>
				<path d="M45.6,52c3,0.4,7.8,1,11.3,1c3.6,0,5.7-1.7,6.2-5.2l0.1-0.5c-1.7,0.3-3.5,0.5-5.2,0.5c-8.1,0-12.2-2.7-12.2-10.8
					c0-1.6,0.2-3.4,0.5-5.4c2-12.4,7.4-16.2,17.8-16.2c4.4,0,9.3,0.9,12.5,3.2c-0.2,2.2-4.7,31-4.7,31c-1.4,8.6-7.8,10.7-15,10.7
					c-4.4,0-9.3-0.7-12.4-1.3c0,0,0,0,0,0L45.6,52z M55,35.4c0,2.9,1.2,4.9,5.8,4.9c1.1,0,2.5-0.2,3.5-0.5c0,0,2.3-15.2,2.4-16.5
					c-0.9-0.4-2.5-0.6-3.9-0.6c-5.6,0-6.8,4.6-7.5,8.8C55.2,33,55,34.3,55,35.4z"/>
			</g>
			<g>
				<path d="M83.7,47.4h-8.9c0,0,4.3-27,4.9-29.1c4.1-2.2,9.2-3.1,14.3-3.1c9,0,11.3,3.1,11.3,7.9c0,1.3-0.2,2.7-0.4,4.2l-3.2,20.1
					h-8.9L95.8,28c0.1-0.9,0.2-1.6,0.2-2.2c0-2.2-1-3.2-4.4-3.2c-1.4,0-2.9,0.2-3.9,0.6C87.4,24.5,83.7,47.4,83.7,47.4z"/>
			</g>
			<g>
				<path d="M106.4,32c1.9-12,6.4-16.6,16.9-16.6c8.6,0,12.2,3.1,12.2,10.7c0,1.7-0.2,3.7-0.5,5.8c-1.9,12-6.4,16.6-16.9,16.6
					c-8.6,0-12.2-3-12.2-10.7C105.8,36.2,106,34.2,106.4,32z M119.2,41c4.2,0,5.6-1.9,6.7-9c0.3-2,0.5-3.5,0.5-4.8
					c0-3.2-1.2-4.2-4.2-4.2c-4.2,0-5.5,1.9-6.7,9c-0.3,2-0.5,3.7-0.5,4.9C115,40.1,116.2,41,119.2,41z"/>
			</g>
			<g>
				<path d="M37.6,15.6h9l-5,31.8h-9L37.6,15.6z M47.7,9.1c-0.5,3.3-1.9,4.6-5.5,4.6c-3.1,0-4.2-0.9-4.2-3.1c0-0.4,0-0.9,0.1-1.5
					c0.5-3.3,1.9-4.6,5.5-4.6c3,0,4.2,0.9,4.2,3.1C47.9,8.1,47.8,8.6,47.7,9.1z"/>
			</g>
			<path d="M24.5,9.3c3.5,0,7.3,0.6,10.2,1.1l1.3-8.5C33,1.2,28.4,0.5,23.8,0.5c-10.6,0-17,3.3-18.7,13.6c-0.2,1.1-0.3,2.1-0.3,3
				c0,6.5,4.2,8.9,11,11.2c3.6,1.2,5.9,2.1,5.9,4.8c0,0.3,0,0.6-0.1,0.9c-0.6,3.7-3.1,4.8-7.4,4.8c-3.5,0-8.8-0.6-11.9-1.1l0,0
				l-1.4,8.8c3.4,0.8,7.5,1.3,12.4,1.3c10.9,0,17.7-3.8,19.4-14.2c0.2-1.3,0.3-2.5,0.3-3.5c0-5.9-3.1-8.9-10.5-11
				c-4.3-1.2-6.7-1.9-6.7-4.7c0-0.3,0-0.6,0.1-1C16.4,9.4,21.1,9.3,24.5,9.3z"/>
			<g>
				<path class="st0" d="M138.5,18.6c2.3-1.9,3.7-4.8,3.7-8c0-0.9-0.1-1.7-0.3-2.6C136.5,4.2,129,1.9,129,1.9l-1.3,8.5
					C127.7,10.4,135.8,11.6,138.5,18.6z"/>
				
					<linearGradient id="SVGID_1_" gradientUnits="userSpaceOnUse" x1="135.2" y1="36.725" x2="147.1534" y2="36.725" gradientTransform="matrix(1 0 0 -1 0 62)">
					<stop  offset="0" style="stop-color:#801119"/>
					<stop  offset="1.890000e-02" style="stop-color:#84121A"/>
					<stop  offset="0.2054" style="stop-color:#A71822"/>
					<stop  offset="0.3958" style="stop-color:#C51A26"/>
					<stop  offset="0.5895" style="stop-color:#DB1B2A"/>
					<stop  offset="0.7883" style="stop-color:#EA1C2B"/>
					<stop  offset="1" style="stop-color:#F31B2C"/>
				</linearGradient>
				<path class="st1" d="M147.1,14.9c-0.5-2.6-2.6-4.9-5.2-6.9c0.2,0.8,0.3,1.7,0.3,2.6c0,3.2-1.4,6.1-3.7,8
					c0.1,0.2,0.2,0.4,0.2,0.6c2.1,6.7-3.5,23.2-3.5,23.2S148,19.8,147.1,14.9z"/>
			</g>
		</g>
		<text transform="matrix(1 0 0 1 74.83 58.0516)" class="st2 st3">Technology</text>
	</g>
	<g>
		<g>
			<path d="M150.6,0.3c1.7,0,3.1,1.4,3.1,3.1s-1.4,3.1-3.1,3.1s-3.1-1.4-3.1-3.1S148.9,0.3,150.6,0.3z M150.6,1
				c-1.4,0-2.5,1.1-2.5,2.5s1.1,2.5,2.5,2.5s2.5-1.1,2.5-2.5S152,1,150.6,1z M150.1,5.2h-0.6V1.6h1.3c1,0,1.4,0.4,1.4,1
				c0,0.5-0.3,0.8-0.7,0.9l0.7,1.5h-0.7l-0.7-1.5H150L150.1,5.2L150.1,5.2L150.1,5.2z M150.1,2.2v1h0.6c0.6,0,0.8-0.2,0.8-0.5
				s-0.3-0.5-0.8-0.5H150.1z"/>
		</g>
	</g>
</g>
</svg>
