<?xml version="1.0" encoding="utf-8"?>
<!-- Uploaded to: SVG Repo, www.svgrepo.com, Generator: SVG Repo Mixer Tools -->
<svg fill="#a00" width="20px" height="24px" viewBox="0 0 32 32" version="1.1" xmlns="http://www.w3.org/2000/svg">
<title>trash-bin</title>
<path d="M2.016 8q0 0.832 0.576 1.44t1.408 0.576v16q0 2.496 1.76 4.224t4.256 1.76h12q2.464 0 4.224-1.76t1.76-4.224v-16q0.832 0 1.408-0.576t0.608-1.44-0.608-1.408-1.408-0.576h-5.984q0-2.496-1.76-4.256t-4.256-1.76-4.256 1.76-1.728 4.256h-6.016q-0.832 0-1.408 0.576t-0.576 1.408zM8 26.016v-16h16v16q0 0.832-0.576 1.408t-1.408 0.576h-12q-0.832 0-1.44-0.576t-0.576-1.408zM10.016 26.016h1.984v-14.016h-1.984v14.016zM14.016 26.016h4v-14.016h-4v14.016zM14.016 6.016q0-0.832 0.576-1.408t1.408-0.608 1.408 0.608 0.608 1.408h-4zM20 26.016h2.016v-14.016h-2.016v14.016z"></path>
</svg>