<svg width="308" height="36" viewBox="0 0 308 36" fill="none" xmlns="http://www.w3.org/2000/svg">
<path d="M0.278409 6.3821V1.81818H21.7812V6.3821H13.7656V28H8.29403V6.3821H0.278409ZM31.3214 28.3835C29.3015 28.3835 27.5629 27.9744 26.1055 27.1562C24.6566 26.3295 23.5401 25.1619 22.756 23.6534C21.9719 22.1364 21.5799 20.3423 21.5799 18.2713C21.5799 16.2514 21.9719 14.4787 22.756 12.9531C23.5401 11.4276 24.6438 10.2386 26.0671 9.38636C27.4989 8.53409 29.1779 8.10795 31.104 8.10795C32.3995 8.10795 33.6055 8.31676 34.7219 8.73438C35.8469 9.14347 36.8271 9.76136 37.6623 10.5881C38.506 11.4148 39.1623 12.4545 39.631 13.7074C40.0998 14.9517 40.3342 16.4091 40.3342 18.0795V19.5753H23.7532V16.2003H35.2077C35.2077 15.4162 35.0373 14.7216 34.6964 14.1165C34.3555 13.5114 33.8825 13.0384 33.2773 12.6974C32.6808 12.348 31.9862 12.1733 31.1935 12.1733C30.3668 12.1733 29.6339 12.3651 28.9947 12.7486C28.364 13.1236 27.8697 13.6307 27.5117 14.2699C27.1538 14.9006 26.9705 15.6037 26.962 16.3793V19.5881C26.962 20.5597 27.141 21.3991 27.4989 22.1065C27.8654 22.8139 28.381 23.3594 29.0458 23.7429C29.7106 24.1264 30.4989 24.3182 31.4109 24.3182C32.016 24.3182 32.57 24.233 33.0728 24.0625C33.5756 23.892 34.006 23.6364 34.364 23.2955C34.7219 22.9545 34.9947 22.5369 35.1822 22.0426L40.2191 22.375C39.9634 23.5852 39.4393 24.642 38.6467 25.5455C37.8626 26.4403 36.8484 27.1392 35.604 27.642C34.3683 28.1364 32.9407 28.3835 31.3214 28.3835ZM60.2262 13.9631L55.2404 14.2699C55.1552 13.8437 54.9719 13.4602 54.6907 13.1193C54.4094 12.7699 54.0387 12.4929 53.5785 12.2884C53.1268 12.0753 52.5856 11.9688 51.9549 11.9688C51.1112 11.9688 50.3995 12.1477 49.82 12.5057C49.2404 12.8551 48.9506 13.3239 48.9506 13.9119C48.9506 14.3807 49.1381 14.777 49.5131 15.1009C49.8881 15.4247 50.5316 15.6847 51.4435 15.8807L54.9975 16.5966C56.9066 16.9886 58.3299 17.6193 59.2674 18.4886C60.2049 19.358 60.6737 20.5 60.6737 21.9148C60.6737 23.2017 60.2944 24.331 59.5359 25.3026C58.7859 26.2741 57.7546 27.0327 56.4421 27.5781C55.1381 28.1151 53.6339 28.3835 51.9293 28.3835C49.3299 28.3835 47.2589 27.8423 45.7163 26.7599C44.1822 25.669 43.283 24.1861 43.0188 22.3111L48.3754 22.0298C48.5373 22.8224 48.9293 23.4276 49.5515 23.8452C50.1737 24.2543 50.9705 24.4588 51.9421 24.4588C52.8967 24.4588 53.6637 24.2756 54.2433 23.9091C54.8313 23.5341 55.1296 23.0526 55.1381 22.4645C55.1296 21.9702 54.9208 21.5653 54.5117 21.25C54.1026 20.9261 53.4719 20.679 52.6197 20.5085L49.2191 19.831C47.3015 19.4474 45.8739 18.7827 44.9364 17.8366C44.0075 16.8906 43.543 15.6847 43.543 14.2188C43.543 12.9574 43.8839 11.8707 44.5657 10.9588C45.256 10.0469 46.2234 9.34375 47.4677 8.84943C48.7205 8.35511 50.1864 8.10795 51.8654 8.10795C54.3455 8.10795 56.2972 8.6321 57.7205 9.6804C59.1523 10.7287 59.9876 12.1562 60.2262 13.9631ZM74.5476 8.36364V12.4545H62.7223V8.36364H74.5476ZM65.407 3.65909H70.853V21.9659C70.853 22.4687 70.9297 22.8608 71.0831 23.142C71.2365 23.4148 71.4496 23.6065 71.7223 23.7173C72.0036 23.8281 72.3274 23.8835 72.6939 23.8835C72.9496 23.8835 73.2053 23.8622 73.4609 23.8196C73.7166 23.7685 73.9126 23.7301 74.049 23.7045L74.9055 27.7571C74.6328 27.8423 74.2493 27.9403 73.755 28.0511C73.2607 28.1705 72.6598 28.2429 71.9524 28.2685C70.6399 28.3196 69.4893 28.1449 68.5007 27.7443C67.5206 27.3437 66.7578 26.7216 66.2124 25.8778C65.6669 25.0341 65.3984 23.9687 65.407 22.6818V3.65909ZM86.8331 28.3835C84.8132 28.3835 83.0746 27.9744 81.6172 27.1562C80.1683 26.3295 79.0518 25.1619 78.2678 23.6534C77.4837 22.1364 77.0916 20.3423 77.0916 18.2713C77.0916 16.2514 77.4837 14.4787 78.2678 12.9531C79.0518 11.4276 80.1555 10.2386 81.5788 9.38636C83.0107 8.53409 84.6896 8.10795 86.6158 8.10795C87.9112 8.10795 89.1172 8.31676 90.2337 8.73438C91.3587 9.14347 92.3388 9.76136 93.174 10.5881C94.0178 11.4148 94.674 12.4545 95.1428 13.7074C95.6115 14.9517 95.8459 16.4091 95.8459 18.0795V19.5753H79.2649V16.2003H90.7195C90.7195 15.4162 90.549 14.7216 90.2081 14.1165C89.8672 13.5114 89.3942 13.0384 88.7891 12.6974C88.1925 12.348 87.4979 12.1733 86.7053 12.1733C85.8786 12.1733 85.1456 12.3651 84.5064 12.7486C83.8757 13.1236 83.3814 13.6307 83.0234 14.2699C82.6655 14.9006 82.4822 15.6037 82.4737 16.3793V19.5881C82.4737 20.5597 82.6527 21.3991 83.0107 22.1065C83.3771 22.8139 83.8928 23.3594 84.5575 23.7429C85.2223 24.1264 86.0107 24.3182 86.9226 24.3182C87.5277 24.3182 88.0817 24.233 88.5845 24.0625C89.0874 23.892 89.5178 23.6364 89.8757 23.2955C90.2337 22.9545 90.5064 22.5369 90.6939 22.0426L95.7308 22.375C95.4751 23.5852 94.951 24.642 94.1584 25.5455C93.3743 26.4403 92.3601 27.1392 91.1158 27.642C89.88 28.1364 88.4524 28.3835 86.8331 28.3835ZM119.966 12.7486V17.0696H108.026V12.7486H119.966ZM147.244 9.34801C147.142 8.31676 146.703 7.51562 145.928 6.9446C145.152 6.37358 144.099 6.08807 142.77 6.08807C141.866 6.08807 141.104 6.21591 140.482 6.47159C139.859 6.71875 139.382 7.06392 139.05 7.5071C138.726 7.95028 138.564 8.45312 138.564 9.01562C138.547 9.48438 138.645 9.89347 138.858 10.2429C139.08 10.5923 139.382 10.8949 139.766 11.1506C140.149 11.3977 140.592 11.6151 141.095 11.8026C141.598 11.9815 142.135 12.1349 142.706 12.2628L145.058 12.8253C146.2 13.081 147.249 13.4219 148.203 13.848C149.158 14.2741 149.984 14.7983 150.683 15.4205C151.382 16.0426 151.923 16.7756 152.307 17.6193C152.699 18.4631 152.899 19.4304 152.908 20.5213C152.899 22.1236 152.49 23.5128 151.68 24.6889C150.879 25.8565 149.72 26.7642 148.203 27.4119C146.695 28.0511 144.875 28.3707 142.744 28.3707C140.631 28.3707 138.79 28.0469 137.222 27.3991C135.662 26.7514 134.443 25.7926 133.565 24.5227C132.696 23.2443 132.24 21.6634 132.197 19.7798H137.554C137.614 20.6577 137.865 21.3906 138.308 21.9787C138.76 22.5582 139.361 22.9972 140.111 23.2955C140.869 23.5852 141.726 23.7301 142.68 23.7301C143.618 23.7301 144.432 23.5937 145.122 23.321C145.821 23.0483 146.362 22.669 146.746 22.1832C147.129 21.6974 147.321 21.1392 147.321 20.5085C147.321 19.9205 147.146 19.4261 146.797 19.0256C146.456 18.625 145.953 18.2841 145.288 18.0028C144.632 17.7216 143.827 17.4659 142.872 17.2358L140.021 16.5199C137.814 15.983 136.071 15.1435 134.793 14.0014C133.514 12.8594 132.879 11.321 132.888 9.38636C132.879 7.80114 133.301 6.41619 134.153 5.23153C135.014 4.04687 136.195 3.12216 137.695 2.45739C139.195 1.79261 140.899 1.46023 142.808 1.46023C144.751 1.46023 146.447 1.79261 147.896 2.45739C149.354 3.12216 150.487 4.04687 151.297 5.23153C152.107 6.41619 152.524 7.78835 152.55 9.34801H147.244ZM156.529 28V8.36364H161.975V28H156.529ZM159.265 5.83239C158.455 5.83239 157.76 5.56392 157.181 5.02699C156.61 4.48153 156.324 3.82954 156.324 3.07102C156.324 2.32102 156.61 1.67756 157.181 1.14062C157.76 0.59517 158.455 0.322442 159.265 0.322442C160.074 0.322442 160.765 0.59517 161.336 1.14062C161.915 1.67756 162.205 2.32102 162.205 3.07102C162.205 3.82954 161.915 4.48153 161.336 5.02699C160.765 5.56392 160.074 5.83239 159.265 5.83239ZM175.184 35.7727C173.42 35.7727 171.907 35.5298 170.646 35.044C169.393 34.5668 168.396 33.9148 167.654 33.0881C166.913 32.2614 166.431 31.3324 166.21 30.3011L171.246 29.6236C171.4 30.0156 171.643 30.3821 171.975 30.723C172.308 31.0639 172.746 31.3366 173.292 31.5412C173.846 31.7543 174.519 31.8608 175.312 31.8608C176.496 31.8608 177.472 31.571 178.239 30.9915C179.015 30.4205 179.403 29.4616 179.403 28.1151V24.5227H179.173C178.934 25.0682 178.576 25.5838 178.099 26.0696C177.621 26.5554 177.008 26.9517 176.258 27.2585C175.508 27.5653 174.613 27.7188 173.573 27.7188C172.099 27.7188 170.756 27.3778 169.546 26.696C168.344 26.0057 167.386 24.9531 166.67 23.5384C165.962 22.1151 165.609 20.3168 165.609 18.1435C165.609 15.919 165.971 14.0611 166.695 12.5696C167.42 11.0781 168.383 9.96165 169.585 9.22017C170.795 8.47869 172.12 8.10795 173.56 8.10795C174.66 8.10795 175.58 8.29545 176.322 8.67045C177.063 9.03693 177.66 9.49716 178.112 10.0511C178.572 10.5966 178.925 11.1335 179.173 11.6619H179.377V8.36364H184.785V28.1918C184.785 29.8622 184.376 31.2599 183.558 32.3849C182.739 33.5099 181.606 34.3537 180.157 34.9162C178.717 35.4872 177.059 35.7727 175.184 35.7727ZM175.299 23.6278C176.177 23.6278 176.918 23.4105 177.523 22.9759C178.137 22.5327 178.606 21.902 178.93 21.0838C179.262 20.2571 179.428 19.2685 179.428 18.1179C179.428 16.9673 179.266 15.9702 178.942 15.1264C178.619 14.2741 178.15 13.6136 177.536 13.1449C176.923 12.6761 176.177 12.4418 175.299 12.4418C174.404 12.4418 173.65 12.6847 173.036 13.1705C172.423 13.6477 171.958 14.3125 171.643 15.1648C171.327 16.017 171.17 17.0014 171.17 18.1179C171.17 19.2514 171.327 20.2315 171.643 21.0582C171.967 21.8764 172.431 22.5114 173.036 22.9631C173.65 23.4062 174.404 23.6278 175.299 23.6278ZM194.565 16.6477V28H189.119V8.36364H194.309V11.8281H194.539C194.974 10.6861 195.702 9.78267 196.725 9.1179C197.748 8.4446 198.988 8.10795 200.445 8.10795C201.809 8.10795 202.998 8.40625 204.012 9.00284C205.026 9.59943 205.815 10.4517 206.377 11.5597C206.94 12.6591 207.221 13.9716 207.221 15.4972V28H201.775V16.4688C201.783 15.267 201.477 14.3295 200.854 13.6562C200.232 12.9744 199.376 12.6335 198.285 12.6335C197.552 12.6335 196.904 12.7912 196.342 13.1065C195.788 13.4219 195.353 13.8821 195.038 14.4872C194.731 15.0838 194.573 15.804 194.565 16.6477ZM220.385 28.3835C218.4 28.3835 216.682 27.9616 215.233 27.1179C213.793 26.2656 212.681 25.081 211.897 23.5639C211.113 22.0384 210.721 20.2699 210.721 18.2585C210.721 16.2301 211.113 14.4574 211.897 12.9403C212.681 11.4148 213.793 10.2301 215.233 9.38636C216.682 8.53409 218.4 8.10795 220.385 8.10795C222.371 8.10795 224.084 8.53409 225.525 9.38636C226.973 10.2301 228.09 11.4148 228.874 12.9403C229.658 14.4574 230.05 16.2301 230.05 18.2585C230.05 20.2699 229.658 22.0384 228.874 23.5639C228.09 25.081 226.973 26.2656 225.525 27.1179C224.084 27.9616 222.371 28.3835 220.385 28.3835ZM220.411 24.1648C221.314 24.1648 222.069 23.9091 222.674 23.3977C223.279 22.8778 223.735 22.1705 224.042 21.2756C224.357 20.3807 224.515 19.3622 224.515 18.2202C224.515 17.0781 224.357 16.0597 224.042 15.1648C223.735 14.2699 223.279 13.5625 222.674 13.0426C222.069 12.5227 221.314 12.2628 220.411 12.2628C219.499 12.2628 218.732 12.5227 218.11 13.0426C217.496 13.5625 217.032 14.2699 216.716 15.1648C216.409 16.0597 216.256 17.0781 216.256 18.2202C216.256 19.3622 216.409 20.3807 216.716 21.2756C217.032 22.1705 217.496 22.8778 218.11 23.3977C218.732 23.9091 219.499 24.1648 220.411 24.1648ZM237.759 28L230.267 1.81818H236.314L240.648 20.0099H240.865L245.647 1.81818H250.824L255.593 20.0483H255.823L260.157 1.81818H266.203L258.712 28H253.317L248.331 10.8821H248.127L243.154 28H237.759ZM275.903 28.3835C273.884 28.3835 272.145 27.9744 270.688 27.1562C269.239 26.3295 268.122 25.1619 267.338 23.6534C266.554 22.1364 266.162 20.3423 266.162 18.2713C266.162 16.2514 266.554 14.4787 267.338 12.9531C268.122 11.4276 269.226 10.2386 270.649 9.38636C272.081 8.53409 273.76 8.10795 275.686 8.10795C276.982 8.10795 278.188 8.31676 279.304 8.73438C280.429 9.14347 281.409 9.76136 282.244 10.5881C283.088 11.4148 283.744 12.4545 284.213 13.7074C284.682 14.9517 284.916 16.4091 284.916 18.0795V19.5753H268.335V16.2003H279.79C279.79 15.4162 279.619 14.7216 279.278 14.1165C278.938 13.5114 278.464 13.0384 277.859 12.6974C277.263 12.348 276.568 12.1733 275.776 12.1733C274.949 12.1733 274.216 12.3651 273.577 12.7486C272.946 13.1236 272.452 13.6307 272.094 14.2699C271.736 14.9006 271.553 15.6037 271.544 16.3793V19.5881C271.544 20.5597 271.723 21.3991 272.081 22.1065C272.447 22.8139 272.963 23.3594 273.628 23.7429C274.293 24.1264 275.081 24.3182 275.993 24.3182C276.598 24.3182 277.152 24.233 277.655 24.0625C278.158 23.892 278.588 23.6364 278.946 23.2955C279.304 22.9545 279.577 22.5369 279.764 22.0426L284.801 22.375C284.545 23.5852 284.021 24.642 283.229 25.5455C282.445 26.4403 281.43 27.1392 280.186 27.642C278.95 28.1364 277.523 28.3835 275.903 28.3835ZM288.572 28V1.81818H294.018V11.6619H294.185C294.423 11.1335 294.768 10.5966 295.22 10.0511C295.68 9.49716 296.277 9.03693 297.01 8.67045C297.751 8.29545 298.672 8.10795 299.771 8.10795C301.203 8.10795 302.524 8.48295 303.734 9.23295C304.945 9.97443 305.912 11.0952 306.636 12.5952C307.361 14.0866 307.723 15.9574 307.723 18.2074C307.723 20.3977 307.369 22.2472 306.662 23.7557C305.963 25.2557 305.009 26.3935 303.798 27.169C302.597 27.9361 301.25 28.3196 299.759 28.3196C298.702 28.3196 297.803 28.1449 297.061 27.7955C296.328 27.446 295.727 27.0071 295.259 26.4787C294.79 25.9418 294.432 25.4006 294.185 24.8551H293.942V28H288.572ZM293.903 18.1818C293.903 19.3494 294.065 20.3679 294.389 21.2372C294.713 22.1065 295.182 22.7841 295.795 23.2699C296.409 23.7472 297.155 23.9858 298.033 23.9858C298.919 23.9858 299.669 23.7429 300.283 23.2571C300.896 22.7628 301.361 22.081 301.676 21.2116C302 20.3338 302.162 19.3239 302.162 18.1818C302.162 17.0483 302.004 16.0511 301.689 15.1903C301.374 14.3295 300.909 13.6562 300.295 13.1705C299.682 12.6847 298.928 12.4418 298.033 12.4418C297.146 12.4418 296.396 12.6761 295.783 13.1449C295.178 13.6136 294.713 14.2784 294.389 15.1392C294.065 16 293.903 17.0142 293.903 18.1818Z" fill="#2F80ED"/>
</svg>
