<svg width="24" height="24" viewBox="0 0 24 24" fill="none" xmlns="http://www.w3.org/2000/svg">
<path fill-rule="evenodd" clip-rule="evenodd" d="M4.77772 3.22257C4.34814 2.793 3.65166 2.793 3.22208 3.22257C2.79251 3.65215 2.79251 4.34863 3.22208 4.77821L10.4443 12.0004L3.22208 19.2226C2.79251 19.6521 2.79251 20.3486 3.22208 20.7782C3.65166 21.2078 4.34814 21.2078 4.77772 20.7782L11.9999 13.556L19.2221 20.7782C19.6517 21.2078 20.3481 21.2078 20.7777 20.7782C21.2073 20.3486 21.2073 19.6521 20.7777 19.2226L13.5555 12.0004L20.7777 4.77821C21.2073 4.34863 21.2073 3.65215 20.7777 3.22257C20.3481 2.793 19.6517 2.793 19.2221 3.22257L11.9999 10.4448L4.77772 3.22257Z" fill="black"/>
</svg>
