<svg width="20" height="22" viewBox="0 0 20 22" fill="none" xmlns="http://www.w3.org/2000/svg">
<path opacity="0.6" fill-rule="evenodd" clip-rule="evenodd" d="M0 5C0 4.44772 0.447715 4 1 4H19C19.5523 4 20 4.44772 20 5C20 5.55228 19.5523 6 19 6H1C0.447715 6 0 5.55228 0 5Z" fill="#FC5050"/>
<path fill-rule="evenodd" clip-rule="evenodd" d="M7.29289 2.29289C7.48043 2.10536 7.73478 2 8 2H12C12.2652 2 12.5196 2.10536 12.7071 2.29289C12.8946 2.48043 13 2.73478 13 3V4H15V3C15 2.20435 14.6839 1.44129 14.1213 0.87868C13.5587 0.31607 12.7956 0 12 0H8C7.20435 0 6.44129 0.31607 5.87868 0.87868C5.31607 1.44129 5 2.20435 5 3V4H7V3C7 2.73478 7.10536 2.48043 7.29289 2.29289ZM18 6H16V19C16 19.2652 15.8946 19.5196 15.7071 19.7071C15.5196 19.8946 15.2652 20 15 20H5C4.73478 20 4.48043 19.8946 4.29289 19.7071C4.10536 19.5196 4 19.2652 4 19V6H3H2V19C2 19.7957 2.31607 20.5587 2.87868 21.1213C3.44129 21.6839 4.20435 22 5 22H15C15.7957 22 16.5587 21.6839 17.1213 21.1213C17.6839 20.5587 18 19.7957 18 19V6Z" fill="#FC5050"/>
</svg>
