<svg width="210" height="34" viewBox="0 0 210 34" fill="none" xmlns="http://www.w3.org/2000/svg">
<path d="M0.194469 26V6.90909H5.24063V10.2773H5.46436C5.86208 9.15874 6.52496 8.27628 7.45299 7.62997C8.38102 6.98366 9.49134 6.66051 10.784 6.66051C12.0931 6.66051 13.2076 6.98781 14.1274 7.6424C15.0471 8.28871 15.6603 9.16702 15.9668 10.2773H16.1657C16.5551 9.18359 17.2595 8.30942 18.2786 7.65483C19.3061 6.99195 20.52 6.66051 21.9203 6.66051C23.7018 6.66051 25.1477 7.2281 26.258 8.36328C27.3766 9.49017 27.9359 11.0894 27.9359 13.1609V26H22.6536V14.2049C22.6536 13.1443 22.3719 12.3488 21.8085 11.8185C21.245 11.2882 20.5407 11.0231 19.6955 11.0231C18.7344 11.0231 17.9845 11.3297 17.4459 11.9428C16.9073 12.5477 16.638 13.3473 16.638 14.3416V26H11.5048V14.093C11.5048 13.1567 11.2355 12.411 10.697 11.8558C10.1667 11.3007 9.46649 11.0231 8.59646 11.0231C8.00815 11.0231 7.47785 11.1722 7.00555 11.4705C6.54153 11.7605 6.17281 12.1707 5.89937 12.701C5.62593 13.223 5.48921 13.8362 5.48921 14.5405V26H0.194469ZM34.7035 33.1591C34.0324 33.1591 33.4026 33.1052 32.8143 32.9975C32.2343 32.8981 31.7537 32.7696 31.3726 32.6122L32.5657 28.6598C33.1872 28.8504 33.7465 28.954 34.2437 28.9705C34.7491 28.9871 35.1841 28.8711 35.5487 28.6225C35.9216 28.3739 36.224 27.9513 36.456 27.3548L36.7667 26.5469L29.9184 6.90909H35.4866L39.439 20.929H39.6378L43.6275 6.90909H49.233L41.8129 28.0632C41.4566 29.0907 40.9719 29.9856 40.3587 30.7479C39.7538 31.5185 38.9874 32.1109 38.0593 32.5252C37.1313 32.9478 36.0127 33.1591 34.7035 33.1591ZM52.0419 26V0.545454H62.0846C64.0069 0.545454 65.6475 0.889322 67.0064 1.57706C68.3736 2.25651 69.4135 3.22183 70.1261 4.47301C70.847 5.71591 71.2074 7.17838 71.2074 8.86044C71.2074 10.5508 70.8428 12.005 70.1137 13.223C69.3845 14.4328 68.3281 15.3608 66.9443 16.0071C65.5688 16.6534 63.9033 16.9766 61.9478 16.9766H55.2238V12.6513H61.0778C62.1053 12.6513 62.9587 12.5104 63.6382 12.2287C64.3176 11.947 64.8231 11.5244 65.1545 10.9609C65.4942 10.3975 65.6641 9.69732 65.6641 8.86044C65.6641 8.01527 65.4942 7.30267 65.1545 6.72266C64.8231 6.14264 64.3135 5.70348 63.6258 5.40518C62.9463 5.0986 62.0887 4.94531 61.053 4.94531H57.4237V26H52.0419ZM65.7884 14.4162L72.1147 26H66.1737L59.9841 14.4162H65.7884ZM83.3039 26.3729C81.3402 26.3729 79.6498 25.9751 78.2329 25.1797C76.8243 24.3759 75.7388 23.2408 74.9765 21.7741C74.2142 20.2992 73.8331 18.555 73.8331 16.5415C73.8331 14.5778 74.2142 12.8543 74.9765 11.3711C75.7388 9.8879 76.8119 8.73201 78.1956 7.90341C79.5877 7.07481 81.22 6.66051 83.0926 6.66051C84.3521 6.66051 85.5246 6.86352 86.61 7.26953C87.7038 7.66726 88.6567 8.26799 89.4687 9.07173C90.289 9.87547 90.927 10.8864 91.3828 12.1044C91.8385 13.3142 92.0664 14.7311 92.0664 16.3551V17.8093H75.946V14.5281H87.0823C87.0823 13.7657 86.9166 13.0904 86.5852 12.5021C86.2537 11.9138 85.7939 11.454 85.2056 11.1225C84.6255 10.7828 83.9502 10.6129 83.1796 10.6129C82.3759 10.6129 81.6633 10.7994 81.0419 11.1722C80.4287 11.5368 79.9481 12.0298 79.6001 12.6513C79.2521 13.2644 79.0739 13.948 79.0657 14.7021V17.8217C79.0657 18.7663 79.2397 19.5825 79.5877 20.2702C79.944 20.958 80.4453 21.4883 81.0916 21.8612C81.7379 22.234 82.5043 22.4205 83.3909 22.4205C83.9792 22.4205 84.5178 22.3376 85.0067 22.1719C85.4956 22.0062 85.914 21.7576 86.262 21.4261C86.61 21.0947 86.8752 20.6887 87.0575 20.2081L91.9545 20.5312C91.7059 21.7079 91.1963 22.7353 90.4257 23.6136C89.6634 24.4837 88.6774 25.1631 87.4676 25.652C86.2662 26.1326 84.8783 26.3729 83.3039 26.3729ZM108.137 33.1591V22.9425H107.975C107.727 23.4728 107.375 23.9989 106.919 24.521C106.472 25.0347 105.887 25.4614 105.167 25.8011C104.454 26.1409 103.584 26.3107 102.556 26.3107C101.106 26.3107 99.793 25.9379 98.6164 25.1921C97.4481 24.4381 96.5201 23.3319 95.8323 21.8736C95.1529 20.407 94.8132 18.6089 94.8132 16.4794C94.8132 14.2919 95.1653 12.4731 95.8696 11.0231C96.5739 9.56475 97.5103 8.47514 98.6786 7.75426C99.8552 7.02509 101.144 6.66051 102.544 6.66051C103.613 6.66051 104.504 6.8428 105.216 7.20739C105.937 7.56368 106.517 8.01113 106.956 8.54972C107.404 9.08002 107.743 9.60204 107.975 10.1158H108.199V6.90909H113.419V33.1591H108.137ZM104.234 22.0973C105.088 22.0973 105.809 21.8653 106.397 21.4013C106.994 20.929 107.449 20.2702 107.764 19.4251C108.087 18.5799 108.249 17.5897 108.249 16.4545C108.249 15.3194 108.091 14.3333 107.777 13.4964C107.462 12.6596 107.006 12.0133 106.409 11.5575C105.813 11.1018 105.088 10.8739 104.234 10.8739C103.364 10.8739 102.631 11.1101 102.034 11.5824C101.438 12.0547 100.986 12.7093 100.68 13.5462C100.373 14.383 100.22 15.3525 100.22 16.4545C100.22 17.5649 100.373 18.5468 100.68 19.4002C100.995 20.2454 101.446 20.9083 102.034 21.3888C102.631 21.8612 103.364 22.0973 104.234 22.0973ZM129.913 17.8714V6.90909H135.207V26H130.124V22.5323H129.925C129.494 23.6509 128.777 24.55 127.775 25.2294C126.78 25.9089 125.567 26.2486 124.133 26.2486C122.857 26.2486 121.734 25.9586 120.765 25.3786C119.795 24.7985 119.037 23.9741 118.49 22.9052C117.952 21.8363 117.678 20.5561 117.67 19.0646V6.90909H122.965V18.12C122.973 19.2469 123.276 20.1377 123.872 20.7923C124.469 21.4469 125.268 21.7741 126.271 21.7741C126.909 21.7741 127.506 21.6291 128.061 21.3391C128.616 21.0408 129.063 20.6017 129.403 20.0217C129.751 19.4416 129.921 18.7249 129.913 17.8714ZM148.143 26.3729C146.179 26.3729 144.489 25.9751 143.072 25.1797C141.663 24.3759 140.578 23.2408 139.815 21.7741C139.053 20.2992 138.672 18.555 138.672 16.5415C138.672 14.5778 139.053 12.8543 139.815 11.3711C140.578 9.8879 141.651 8.73201 143.034 7.90341C144.427 7.07481 146.059 6.66051 147.932 6.66051C149.191 6.66051 150.363 6.86352 151.449 7.26953C152.543 7.66726 153.496 8.26799 154.308 9.07173C155.128 9.87547 155.766 10.8864 156.222 12.1044C156.677 13.3142 156.905 14.7311 156.905 16.3551V17.8093H140.785V14.5281H151.921C151.921 13.7657 151.755 13.0904 151.424 12.5021C151.093 11.9138 150.633 11.454 150.044 11.1225C149.464 10.7828 148.789 10.6129 148.019 10.6129C147.215 10.6129 146.502 10.7994 145.881 11.1722C145.268 11.5368 144.787 12.0298 144.439 12.6513C144.091 13.2644 143.913 13.948 143.905 14.7021V17.8217C143.905 18.7663 144.079 19.5825 144.427 20.2702C144.783 20.958 145.284 21.4883 145.93 21.8612C146.577 22.234 147.343 22.4205 148.23 22.4205C148.818 22.4205 149.357 22.3376 149.846 22.1719C150.334 22.0062 150.753 21.7576 151.101 21.4261C151.449 21.0947 151.714 20.6887 151.896 20.2081L156.793 20.5312C156.545 21.7079 156.035 22.7353 155.265 23.6136C154.502 24.4837 153.516 25.1631 152.307 25.652C151.105 26.1326 149.717 26.3729 148.143 26.3729ZM176.245 12.353L171.397 12.6513C171.315 12.237 171.136 11.8641 170.863 11.5327C170.59 11.1929 170.229 10.9237 169.782 10.7248C169.342 10.5176 168.816 10.4141 168.203 10.4141C167.383 10.4141 166.691 10.5881 166.128 10.9361C165.564 11.2758 165.282 11.7315 165.282 12.3033C165.282 12.759 165.465 13.1443 165.829 13.4592C166.194 13.774 166.819 14.0268 167.706 14.2173L171.161 14.9134C173.017 15.2945 174.401 15.9077 175.313 16.7528C176.224 17.598 176.68 18.7083 176.68 20.0838C176.68 21.335 176.311 22.4329 175.574 23.3775C174.844 24.3221 173.842 25.0595 172.566 25.5898C171.298 26.1119 169.836 26.3729 168.178 26.3729C165.651 26.3729 163.638 25.8467 162.138 24.7944C160.646 23.7338 159.772 22.292 159.515 20.4691L164.723 20.1957C164.88 20.9663 165.262 21.5546 165.867 21.9606C166.471 22.3583 167.246 22.5572 168.191 22.5572C169.119 22.5572 169.865 22.379 170.428 22.0227C171 21.6581 171.29 21.19 171.298 20.6183C171.29 20.1377 171.087 19.7441 170.689 19.4375C170.291 19.1226 169.678 18.8823 168.849 18.7166L165.543 18.0579C163.679 17.685 162.291 17.0387 161.38 16.119C160.476 15.1992 160.025 14.0268 160.025 12.6016C160.025 11.3752 160.356 10.3188 161.019 9.43217C161.69 8.54557 162.631 7.86198 163.841 7.38139C165.059 6.9008 166.484 6.66051 168.116 6.66051C170.527 6.66051 172.425 7.1701 173.809 8.18927C175.201 9.20845 176.013 10.5964 176.245 12.353ZM190.168 6.90909V10.8864H178.671V6.90909H190.168ZM181.282 2.33523H186.576V20.1335C186.576 20.6224 186.651 21.0036 186.8 21.277C186.949 21.5421 187.156 21.7286 187.421 21.8363C187.695 21.944 188.01 21.9979 188.366 21.9979C188.615 21.9979 188.863 21.9772 189.112 21.9357C189.36 21.886 189.551 21.8487 189.684 21.8239L190.516 25.7638C190.251 25.8467 189.878 25.942 189.398 26.0497C188.917 26.1657 188.333 26.2362 187.645 26.261C186.369 26.3107 185.251 26.1409 184.289 25.7514C183.336 25.362 182.595 24.7571 182.065 23.9368C181.534 23.1165 181.273 22.0807 181.282 20.8295V2.33523ZM209.262 12.353L204.415 12.6513C204.332 12.237 204.154 11.8641 203.881 11.5327C203.607 11.1929 203.247 10.9237 202.799 10.7248C202.36 10.5176 201.834 10.4141 201.221 10.4141C200.4 10.4141 199.709 10.5881 199.145 10.9361C198.582 11.2758 198.3 11.7315 198.3 12.3033C198.3 12.759 198.482 13.1443 198.847 13.4592C199.211 13.774 199.837 14.0268 200.724 14.2173L204.179 14.9134C206.035 15.2945 207.419 15.9077 208.33 16.7528C209.242 17.598 209.697 18.7083 209.697 20.0838C209.697 21.335 209.329 22.4329 208.591 23.3775C207.862 24.3221 206.859 25.0595 205.583 25.5898C204.316 26.1119 202.853 26.3729 201.196 26.3729C198.669 26.3729 196.655 25.8467 195.155 24.7944C193.664 23.7338 192.79 22.292 192.533 20.4691L197.741 20.1957C197.898 20.9663 198.279 21.5546 198.884 21.9606C199.489 22.3583 200.264 22.5572 201.208 22.5572C202.136 22.5572 202.882 22.379 203.446 22.0227C204.017 21.6581 204.307 21.19 204.316 20.6183C204.307 20.1377 204.104 19.7441 203.707 19.4375C203.309 19.1226 202.696 18.8823 201.867 18.7166L198.561 18.0579C196.697 17.685 195.309 17.0387 194.397 16.119C193.494 15.1992 193.042 14.0268 193.042 12.6016C193.042 11.3752 193.374 10.3188 194.037 9.43217C194.708 8.54557 195.648 7.86198 196.858 7.38139C198.076 6.9008 199.501 6.66051 201.134 6.66051C203.545 6.66051 205.442 7.1701 206.826 8.18927C208.218 9.20845 209.03 10.5964 209.262 12.353Z" fill="#FC794F"/>
</svg>
